<?xml version="1.0" encoding="utf-8"?>
<!-- Generator: Adobe Illustrator 23.0.0, SVG Export Plug-In . SVG Version: 6.00 Build 0)  -->
<svg version="1.1" id="Layer_1" xmlns="http://www.w3.org/2000/svg" xmlns:xlink="http://www.w3.org/1999/xlink" x="0px" y="0px"
	 width="18px" height="19px" viewBox="0 0 18 19" style="enable-background:new 0 0 18 19;" xml:space="preserve">
<style type="text/css">
	.st0{fill:#A7A9AB;stroke:#A7A9AB;stroke-miterlimit:10;}
</style>
<g>
	<path class="st0" d="M16.4,17c-0.1-0.1-0.2-0.2-0.3-0.3c-1.5-1.6-2.9-3.2-4.4-4.8c0,0,0,0-0.1-0.1c-0.2,0.1-0.4,0.3-0.6,0.4
		c-1.1,0.7-2.4,1-3.7,0.9c-1.5-0.2-2.7-0.8-3.7-1.9c-0.7-0.8-1.2-1.7-1.4-2.8C2.1,8.1,2.1,7.8,2.1,7.5c0-0.2,0-0.4,0-0.6
		c0,0,0-0.1,0-0.1c0-0.5,0.1-1.1,0.3-1.6c0.9-2.2,2.4-3.4,4.7-3.8c0.2,0,0.3,0,0.5-0.1c0.2,0,0.4,0,0.6,0c0.2,0,0.3,0,0.5,0.1
		c2.2,0.3,3.7,1.5,4.6,3.6c0.4,1,0.5,2.1,0.4,3.2c-0.2,1.1-0.6,2.1-1.4,3c0,0-0.1,0.1-0.1,0.1c0,0,0,0,0,0c0.1,0.1,0.1,0.1,0.2,0.2
		c1.5,1.6,2.9,3.2,4.4,4.8c0.3,0.3,0.2,0.6-0.1,0.7C16.6,17,16.5,17,16.4,17z M8,2.1c-2.8,0-5.1,2.3-5.1,5.1c0,2.8,2.3,5.1,5.1,5.1
		c2.8,0,5.1-2.3,5.1-5.1C13,4.4,10.8,2.1,8,2.1z"/>
</g>
</svg>
