<?xml version="1.0" encoding="utf-8"?>
<!-- Generator: Adobe Illustrator 23.0.0, SVG Export Plug-In . SVG Version: 6.00 Build 0)  -->
<svg version="1.1" id="Layer_1" xmlns="http://www.w3.org/2000/svg" xmlns:xlink="http://www.w3.org/1999/xlink" x="0px" y="0px"
	 width="21px" height="15px" viewBox="0 0 21 15" style="enable-background:new 0 0 21 15;" xml:space="preserve">
<style type="text/css">
	.st0{fill:#0062A0;}
</style>
<g>
	<path class="st0" d="M20,2.6c0-0.2,0-0.5-0.1-0.7c-0.2-0.5-0.6-0.8-1.1-0.9c-0.1,0-1.6,0-1.7,0c-2.3,0-4.6,0-6.9,0
		C7.6,1,5.1,1,2.5,1C2.3,1,2,1.1,1.8,1.2C1.3,1.5,1,1.9,1,2.6c0,3.3,0,6.7,0,10c0,0.4,0.1,0.8,0.4,1.1c0.2,0.3,0.6,0.4,0.9,0.5
		c0.2,0,16.5,0,16.5,0s1.2,0,1.2-0.7c0-0.8,0-0.5,0-0.8C19.9,9.3,19.9,5.9,20,2.6z M16.3,2.1c-0.1-0.1,1.5,0,1.6,0
		c-0.1,0.1-0.3,0.3-0.4,0.4c-0.5,0.5-1.1,1-1.6,1.5c-1.3,1.3-2.6,2.5-3.9,3.8c-0.4,0.4-0.8,0.8-1.2,1.2c-0.2,0.2-0.5,0.2-0.7,0
		C9.5,8.4,8.8,7.8,8.2,7.2C7.3,6.3,6.4,5.5,5.5,4.6C4.7,3.9,3.9,3.2,3.1,2.4C3,2.3,2.9,2.2,2.8,2.1C7.3,2.1,11.8,2.1,16.3,2.1z
		 M2.1,12.1C2.1,12.1,2.1,12.1,2.1,12.1C2,9.1,2,6,2,2.9c0,0,0,0,0,0C2.2,3,2.3,3.1,2.4,3.2c0.5,0.4,0.9,0.9,1.4,1.3
		c0.5,0.5,1,1,1.5,1.5c0.5,0.4,0.9,0.9,1.4,1.3c0.1,0.1,0.1,0.1,0,0.2C6.2,8.1,5.6,8.7,5,9.3c-0.8,0.8-1.5,1.5-2.3,2.3
		C2.5,11.7,2.3,11.9,2.1,12.1z M18,13.1c-4.2,0-8.4,0-12.6,0c-0.1,0-2.1,0-2.5,0c0,0-0.1,0-0.2,0c1.7-1.6,3.3-3.2,5-4.9
		C7.8,8.4,8,8.5,8.2,8.7C8.6,9.1,9,9.5,9.4,9.8c0.3,0.2,0.6,0.4,0.9,0.4c0.5,0,0.9-0.2,1.3-0.5c0.5-0.5,1.1-1,1.6-1.5
		c1.7,1.6,3.3,3.2,5,4.9C18.1,13.1,18,13.1,18,13.1z M18.9,12.2C17.2,10.6,15.6,9,14,7.4c1.6-1.6,3.2-3.1,4.9-4.7
		C18.9,5.9,18.9,9,18.9,12.2z"/>
</g>
</svg>
