<?xml version="1.0" encoding="utf-8"?>
<!-- Generator: Adobe Illustrator 23.0.0, SVG Export Plug-In . SVG Version: 6.00 Build 0)  -->
<svg version="1.1" id="Layer_1" xmlns="http://www.w3.org/2000/svg" xmlns:xlink="http://www.w3.org/1999/xlink" x="0px" y="0px"
	 width="20px" height="12px" viewBox="0 0 20 12" style="enable-background:new 0 0 20 12;" xml:space="preserve">
<style type="text/css">
	.st0{fill:#00437C;}
</style>
<g>
	<polygon class="st0" points="18,1 17.8,1 2.1,1 2,1 10,7.3 	"/>
	<path class="st0" d="M18.9,1.6l-5.7,4.5l5.6,4.4c0.1-0.1,0.1-0.3,0.1-0.5V2C18.9,1.8,18.9,1.7,18.9,1.6z"/>
	<path class="st0" d="M1.1,1.6C1,1.7,1,1.8,1,2v8c0,0.1,0,0.3,0.1,0.4l5.6-4.3L1.1,1.6z"/>
	<polygon class="st0" points="10,8.6 7.6,6.7 2,11 2.1,11 17.8,11 12.4,6.7 	"/>
</g>
</svg>
