<?xml version="1.0" encoding="utf-8"?>
<!-- Generator: Adobe Illustrator 23.0.0, SVG Export Plug-In . SVG Version: 6.00 Build 0)  -->
<svg version="1.1" id="Layer_1" xmlns="http://www.w3.org/2000/svg" xmlns:xlink="http://www.w3.org/1999/xlink" x="0px" y="0px"
	 width="300px" height="73px" viewBox="0 0 300 73" style="enable-background:new 0 0 300 73;" xml:space="preserve">
<style type="text/css">
	.st0{fill-rule:evenodd;clip-rule:evenodd;fill:url(#SVGID_1_);}
	.st1{fill-rule:evenodd;clip-rule:evenodd;fill:url(#SVGID_2_);}
	.st2{fill-rule:evenodd;clip-rule:evenodd;fill:url(#SVGID_3_);}
	.st3{fill-rule:evenodd;clip-rule:evenodd;}
</style>
<g>
	<linearGradient id="SVGID_1_" gradientUnits="userSpaceOnUse" x1="106.0054" y1="23.4412" x2="135.8295" y2="23.4412">
		<stop  offset="0" style="stop-color:#D52616"/>
		<stop  offset="1" style="stop-color:#741309"/>
	</linearGradient>
	<path class="st0" d="M121,1.4c4.8,8.6,9.6,17.2,14.5,25.8c0.4,0.6,0.4,1.1,0.3,1.5l-9.3,16.8l-3.8-6.7c1.6-2.9,3.3-5.8,4.9-8.8
		c0.2-0.4,0.3-0.8,0.1-1.3c-2.1-3.7-4.2-7.3-6.4-11c-0.2-0.3-0.4-0.3-0.6,0l-5.4,9.7l-9.3-0.3L121,1.4z"/>
	<linearGradient id="SVGID_2_" gradientUnits="userSpaceOnUse" x1="122.3757" y1="52.8968" x2="143.7954" y2="43.7742">
		<stop  offset="0" style="stop-color:#6D717F"/>
		<stop  offset="1" style="stop-color:#252A38"/>
	</linearGradient>
	<path class="st1" d="M153.3,56.9c-9.9,0-19.7,0-29.6,0c-0.7,0-1.1-0.2-1.4-0.5l-10-16.3l7.7,0c1.7,2.9,3.5,5.7,5.2,8.6
		c0.2,0.4,0.6,0.7,1.1,0.7c4.2,0,8.5-0.1,12.7-0.1c0.3,0,0.4-0.2,0.3-0.5l-5.8-9.5l4.8-7.9L153.3,56.9z"/>
	<linearGradient id="SVGID_3_" gradientUnits="userSpaceOnUse" x1="86.8475" y1="50.848" x2="128.4246" y2="38.7664">
		<stop  offset="0" style="stop-color:#358EC7"/>
		<stop  offset="1" style="stop-color:#043670"/>
	</linearGradient>
	<path class="st2" d="M88.9,56.8c5-8.5,10-17,15-25.5c0.3-0.6,0.7-0.9,1.1-1l19.2-0.4l-3.9,6.6c-3.3,0.1-6.7,0.1-10,0.2
		c-0.5,0-0.9,0.1-1.1,0.6c-2.1,3.7-4.2,7.4-6.3,11c-0.1,0.3,0,0.5,0.3,0.5l11.1-0.2l4.4,8.1L88.9,56.8z"/>
	<path class="st3" d="M7.7,46.6v-1.5h3.6V18.4H9.7c-1.9,0-3.5,0.6-4.6,1.8c-1.1,1.2-2.1,3.3-3,6.4H1l0.4-9.6h27.5l0.4,9.6h-1.2
		c-0.8-3-1.8-5.1-2.9-6.3c-1.1-1.3-2.7-1.9-4.5-1.9h-1.7v26.7h3.6v1.5H7.7L7.7,46.6z M31.5,46.6v-1.5h3.6V18.4H32v-1.4h24.6l0.1,7.8
		h-1.5c-1-2.5-2-4.2-3.1-5.1c-1-0.9-2.6-1.3-4.5-1.3h-5.1v12.2c0.1,0,0.3,0,0.4,0c0.2,0,0.4,0,0.6,0c1.6,0,2.8-0.4,3.7-1.3
		c0.8-0.9,1.4-2.2,1.6-4.1h1.5v12.6h-1.5c-0.2-2-0.7-3.5-1.5-4.4c-0.8-0.9-2.2-1.3-3.9-1.3h-0.9v13.1h5c2.4,0,4.4-0.6,5.7-1.9
		c1.4-1.3,2.4-3.4,3.2-6.5h1.4l-0.3,9.9H31.5L31.5,46.6z M60.1,46.6v-1.5h2.2c0.6,0,1.1-0.1,1.5-0.3c0.3-0.2,0.8-0.7,1.3-1.5l6.8-10
		l-9.1-15h-2.6v-1.4h14.4v1.4h-3l5.1,8.6l5-7.5c0,0,0-0.1,0.1-0.1c0.1-0.2,0.2-0.4,0.2-0.5c0-0.2-0.1-0.3-0.2-0.4
		c-0.1-0.1-0.4-0.1-0.7-0.1H78v-1.4h10.1v1.4h-1.9c-1,0-1.6,0.1-2,0.3c-0.4,0.2-0.8,0.6-1.2,1.2l-5.7,8.3l10.2,17h2.4v1.5H75.7v-1.5
		h3.2l-6.3-10.4L67,43.2c-0.1,0.2-0.2,0.4-0.3,0.6c-0.1,0.2-0.1,0.4-0.1,0.6c0,0.2,0.1,0.4,0.3,0.5c0.2,0.1,0.5,0.2,0.8,0.2h2.6v1.5
		H60.1L60.1,46.6z M172.1,37.8v8.9h-1.5l-2-1.6c-0.9,0.8-1.9,1.4-3.1,1.8c-1.2,0.4-2.5,0.6-4,0.6c-2,0-3.9-0.4-5.6-1.2
		c-1.7-0.8-3.3-2-4.7-3.6c-1.4-1.6-2.5-3.2-3.2-5c-0.7-1.8-1.1-3.7-1.1-5.7c0-2,0.4-3.9,1.1-5.7c0.7-1.8,1.8-3.4,3.2-5
		c1.5-1.6,3-2.8,4.8-3.6c1.7-0.8,3.6-1.2,5.6-1.2c1.3,0,2.4,0.2,3.5,0.5c1.1,0.4,2.2,0.9,3.2,1.6l1.6-1.5h1.5l0.2,8.2h-1.6
		c-1-2.6-2.1-4.5-3.5-5.7c-1.3-1.1-3-1.7-5-1.7c-2.3,0-3.8,0.7-4.6,2.2c-0.8,1.5-1.2,5.2-1.2,11.3c0,3.2,0,5.5,0.1,7.1
		c0.1,1.6,0.2,2.7,0.4,3.4c0.4,1.5,1,2.5,1.8,3.2c0.8,0.7,2,1,3.5,1c2.1,0,4-0.8,5.6-2.3c1.7-1.5,2.7-3.5,3.2-5.9H172.1L172.1,37.8z
		 M188.1,30.4l10.5-10.6c0.2-0.2,0.3-0.4,0.4-0.5c0.1-0.1,0.1-0.2,0.1-0.4c0-0.1-0.1-0.3-0.2-0.4c-0.1-0.1-0.3-0.2-0.5-0.2h-3v-1.3
		h10.9v1.3h-1.8c-0.9,0-1.6,0.1-2.3,0.4c-0.6,0.3-1.4,0.9-2.4,1.9l-6.2,6.3l12.2,18.1h3.5v1.5h-15.8v-1.5h3.6l-9.2-13.6V30.4
		L188.1,30.4z M176.5,45.1v1.5h14.8v-1.5h-3.6V18.4h3.6v-1.3h-14.8v1.3h3.6v26.7H176.5L176.5,45.1z M215.1,36.8h8l-3.9-10.4
		L215.1,36.8L215.1,36.8z M207.3,46.6h9.2v-1.5h-2.6c-0.4,0-0.7-0.1-1-0.2c-0.2-0.1-0.3-0.3-0.3-0.6c0-0.2,0-0.5,0-0.7
		c0-0.2,0.1-0.3,0.1-0.4l2-5h9l2.6,6.9h-3.6v1.5H237v-1.5h-2.6l-11.1-28.7h-1.8l-10.2,26.4c-0.3,0.9-0.7,1.4-1,1.8
		c-0.3,0.3-0.7,0.5-1.2,0.5h-1.8V46.6L207.3,46.6z M238.6,46.6v-1.5h3.6V18.4h-3.6v-1.3h14.6v1.3h-3.5v12.2h9.9V18.4H256v-1.3h14.6
		v1.3H267v26.7h3.6v1.5H256v-1.5h3.6V32.3h-9.9v12.9h3.5v1.5H238.6z"/>
	<path class="st3" d="M173.6,52c0,0.1,0,0.2,0,0.4c0,0.1,0,0.3,0,0.4c0,0.1,0,0.1-0.1,0.2c0,0.1-0.1,0.1-0.1,0.2
		c0,0.1-0.1,0.2-0.2,0.3c-0.1,0.1-0.1,0.1-0.1,0.1c-0.1,0-0.1,0-0.1,0.1c0,0.1-0.1,0.1-0.1,0.1c-0.1,0-0.1,0-0.2-0.1
		c-0.1-0.1-0.1-0.1-0.2-0.1c-0.2,0-0.3-0.1-0.4-0.1c-0.1,0-0.2-0.1-0.2-0.1c-0.1-0.1-0.2-0.1-0.3-0.2c-0.1-0.1-0.3-0.1-0.6-0.2
		c-0.1,0-0.2,0-0.3-0.1c-0.1,0-0.2,0-0.3,0c-0.1,0-0.1,0-0.2,0c-0.1,0-0.2,0-0.2,0c-0.1,0-0.1,0-0.2-0.1c-0.1,0-0.1-0.1-0.2-0.1
		c-0.1,0-0.3,0-0.4,0c-0.1,0-0.3,0-0.4,0c-0.1,0-0.1,0-0.2,0c-0.1,0-0.1,0-0.2,0c0,0,0,0.1-0.1,0.1c0,0-0.1,0.1-0.1,0.1
		c0,0-0.1,0.1-0.1,0.1c-0.1,0-0.1,0.1-0.1,0.1c0,0,0,0.1,0,0.1c0,0.1,0,0.1,0,0.1c-0.1,0.1-0.1,0.3-0.2,0.4
		c-0.1,0.1-0.1,0.3-0.2,0.5c0,0.1-0.1,0.2-0.1,0.4c-0.1,0.2-0.1,0.4-0.2,0.7c-0.1,0.3-0.1,0.6-0.2,1c-0.1,0.4-0.2,0.8-0.3,1.3
		c-0.1,0.3-0.1,0.5-0.2,0.8c-0.1,0.3-0.1,0.6-0.2,0.9c0,0.2-0.1,0.5-0.1,0.7c0,0.3-0.1,0.5-0.1,0.8c-0.1,0.6-0.2,1.1-0.3,1.7
		c-0.1,0.6-0.2,1.1-0.3,1.7c0,0.3-0.1,0.5-0.1,0.8c0,0.3-0.1,0.5-0.1,0.8c0,0.1,0,0.1,0.1,0.2c0,0.1,0.1,0.2,0.1,0.2
		c0,0.1,0,0.1-0.1,0.2c0,0.1-0.1,0.1-0.1,0.2c0,0,0,0.1-0.1,0.2c-0.1,0.1-0.1,0.1-0.2,0.2c0,0-0.1,0-0.2,0.1
		c-0.1,0.1-0.2,0.1-0.2,0.1c0,0-0.1,0-0.1-0.1c0,0-0.1-0.1-0.1-0.1c0,0-0.1,0-0.1-0.1c0-0.1-0.1-0.1-0.1-0.1c-0.1,0-0.2-0.1-0.3-0.2
		c-0.1-0.1-0.2-0.2-0.2-0.2c0-0.1-0.1-0.1-0.1-0.2c0-0.1,0-0.2,0-0.3c0-0.1,0-0.2,0-0.3c0-0.1,0-0.2,0-0.3c0-0.1,0-0.3,0.1-0.4
		c0.1-0.1,0.1-0.3,0.1-0.4c0-0.3,0-0.5,0.1-0.8c0.1-0.2,0.1-0.5,0.1-0.8c0-0.2,0-0.4,0.1-0.6c0-0.2,0.1-0.4,0.1-0.6
		c0-0.3,0-0.6,0.1-1c0-0.3,0.1-0.6,0.1-1c0-0.2,0-0.4,0.1-0.6c0-0.2,0-0.4,0.1-0.6c0-0.2,0-0.4,0.1-0.6c0-0.2,0.1-0.4,0.1-0.6
		c0-0.1,0.1-0.3,0.1-0.4c0-0.1,0.1-0.3,0.1-0.4c0-0.1,0-0.2,0-0.3c0-0.1,0-0.2,0-0.3c0-0.1,0-0.3,0-0.4c0-0.1,0-0.3,0-0.4
		c0-0.1,0.1-0.2,0.1-0.3c0.1-0.1,0.1-0.2,0.1-0.3c0-0.1,0-0.2,0.1-0.3c0-0.1,0-0.2,0.1-0.3c0,0,0,0,0.1-0.1c0,0,0.1-0.1,0.1-0.2
		c0-0.1,0.1-0.2,0.2-0.2c0.1-0.1,0.2-0.2,0.2-0.2c0.1-0.1,0.2-0.2,0.2-0.2c0,0,0.1-0.1,0.2-0.2c0,0,0.1-0.1,0.2-0.1
		c0.1-0.1,0.1-0.1,0.2-0.1c0,0,0-0.1,0-0.1c0,0,0-0.1,0-0.1c-0.1,0-0.1,0-0.2,0c0,0-0.1,0-0.2,0c-0.1,0-0.2,0-0.3,0
		c-0.1,0-0.2,0-0.3,0c-0.2,0-0.3,0-0.5,0.1c-0.1,0-0.3,0-0.4,0.1c0,0-0.1,0-0.1,0c0,0-0.1,0-0.1,0c0,0-0.1,0-0.1,0.1
		c0,0.1-0.1,0.1-0.1,0.1c0,0,0,0-0.1,0.1c0,0.1-0.1,0.1-0.1,0.1c0,0-0.1,0-0.1,0c0,0-0.1-0.1-0.1-0.1c0,0-0.1,0-0.1,0
		c0,0,0-0.1,0-0.1c0-0.1,0-0.1,0-0.2c0-0.1,0.1-0.1,0.1-0.2c0-0.1,0.1-0.1,0.1-0.2c0.1-0.1,0.1-0.1,0.1-0.2c0.1-0.1,0.1-0.1,0.2-0.2
		c0.1-0.1,0.1-0.1,0.1-0.1c0,0,0.1,0,0.1-0.1c0,0,0.1-0.1,0.1-0.1c0,0,0.1,0,0.1,0c0,0,0.1,0,0.1,0c0.1,0,0.3-0.1,0.4-0.2
		c0.1-0.1,0.3-0.1,0.4-0.1c0.2,0,0.3-0.1,0.5-0.2c0.2-0.1,0.4-0.1,0.6-0.2c0.1,0,0.1,0,0.2-0.1c0.1-0.1,0.1-0.1,0.2-0.1
		c0,0,0.1,0,0.1,0c0,0,0.1,0,0.1,0c0.4-0.1,0.9-0.2,1.4-0.3c0.5-0.1,1.1-0.1,1.7-0.2c0.1,0,0.3,0,0.4-0.1c0.2,0,0.3-0.1,0.5-0.1
		c0.1,0,0.1,0,0.2,0c0.1,0,0.1,0,0.2,0c0.1,0,0.2,0,0.3,0c0.1,0,0.2,0,0.3,0c0.1,0,0.2,0,0.2,0c0.1,0,0.2,0,0.2,0.1
		c0,0,0.1,0.1,0.1,0.1c0,0.1,0,0.1,0.1,0.1c0,0,0.1,0,0.2,0c0.1,0,0.1,0,0.1,0.1c0.1,0.1,0.1,0.3,0.2,0.5
		C173.6,51.7,173.6,51.9,173.6,52L173.6,52z M171.5,62.4c0.1,0.2,0.2,0.4,0.3,0.6c0.1,0.2,0.1,0.3,0.2,0.4c0.3-0.3,0.5-0.6,0.7-0.7
		c0.2-0.2,0.3-0.3,0.4-0.3c0,0.2,0,0.4,0,0.7c0,0.3-0.1,0.5-0.1,0.8c-0.1,0.3-0.1,0.5-0.2,0.8c-0.1,0.3-0.1,0.5-0.1,0.8
		c-0.1,0.9-0.3,1.7-0.3,2.4c-0.1,0.7-0.1,1.4-0.1,2.1c0,0.4,0.1,0.7,0.2,0.9c0.1,0.2,0.3,0.3,0.5,0.3c0.1,0,0.2-0.1,0.3-0.2
		c0.1-0.2,0.3-0.4,0.5-0.7c0.1-0.2,0.2-0.4,0.2-0.6c0-0.2,0.1-0.3,0.1-0.4c0-0.2,0.1-0.4,0.3-0.7c0.1-0.3,0.2-0.6,0.3-0.7
		c0.1-0.5,0.2-0.9,0.3-1.2c0.1-0.3,0.2-0.6,0.3-0.8c0.1-0.3,0.1-0.5,0.2-0.8c0.1-0.2,0.1-0.3,0.2-0.5c0.1-0.1,0.1-0.3,0.2-0.4
		c0.2-0.5,0.4-0.9,0.5-1.3c0.2-0.3,0.3-0.5,0.5-0.6c0.2,0.1,0.4,0.2,0.6,0.5c0.3,0.3,0.5,0.5,0.7,0.5l0.7,0.3
		c0.3-0.1,0.5-0.1,0.7-0.1c0.2,0,0.3-0.1,0.3-0.1l-0.5-1c-0.1,0-0.2-0.1-0.3-0.2c-0.1-0.1-0.2-0.3-0.3-0.5c-0.2-0.4-0.3-0.6-0.4-0.8
		c-0.1-0.2-0.2-0.3-0.2-0.4c-0.1-0.2-0.3-0.4-0.5-0.5c-0.2-0.1-0.4-0.2-0.6-0.2c-0.1,0-0.2,0-0.3,0.1c-0.1,0.1-0.3,0.2-0.5,0.4
		c-0.2,0.4-0.3,0.8-0.5,1.1c-0.2,0.3-0.3,0.6-0.4,0.8c-0.3,0.9-0.5,1.6-0.8,2.3c-0.2,0.7-0.4,1.2-0.6,1.6c0,0.1,0,0.2,0,0.3
		c0,0.1-0.1,0.3-0.1,0.5c0,0.2-0.1,0.4-0.1,0.5c0,0.1-0.1,0.2-0.1,0.2l0-0.1c0-0.1,0-0.3,0.1-0.5c0.1-0.3,0.1-0.7,0.3-1.1
		c0.1-0.2,0.1-0.5,0.1-0.6c0-0.2,0.1-0.3,0.1-0.5c0.2-0.9,0.4-1.7,0.6-2.4c0.2-0.6,0.3-1.1,0.4-1.5c0.5-1.5,0.9-2.6,1.1-3.4
		c0.2-0.8,0.4-1.3,0.4-1.4c0-0.3,0-0.5-0.1-0.6c-0.1-0.1-0.2-0.2-0.3-0.2c-0.1,0-0.2,0-0.3,0.1c-0.1,0.1-0.2,0.2-0.3,0.4
		c-0.1,0.2-0.2,0.4-0.3,0.6c-0.1,0.2-0.1,0.3-0.2,0.5c-0.2,0.5-0.5,1-0.8,1.6c-0.3,0.5-0.7,1.1-1,1.7c-0.1,0.1-0.1,0.3-0.2,0.3
		c0,0.1-0.1,0.2-0.1,0.2c-0.3,0.3-0.6,0.6-0.8,0.9C171.8,62,171.6,62.2,171.5,62.4L171.5,62.4z M179.1,62.4c0.2-0.2,0.4-0.4,0.8-0.6
		c0.3-0.2,0.6-0.5,0.8-0.6c0.1-0.1,0.3-0.3,0.4-0.5c0.2-0.2,0.4-0.4,0.6-0.7c0.1-0.1,0.3-0.2,0.4-0.3c0.1-0.1,0.3-0.1,0.4-0.1
		c0.2,0,0.3,0,0.4,0.1c0.1,0.1,0.1,0.2,0.1,0.4c0,0.3-0.1,0.7-0.3,1.4c-0.2,0.6-0.3,1.1-0.3,1.4c0,0.1,0,0.1,0.1,0.2
		c0,0,0.1,0,0.1,0l0.1,0c0.1-0.1,0.3-0.2,0.5-0.3c0.2-0.1,0.4-0.3,0.6-0.5c0.2-0.2,0.4-0.4,0.7-0.7c0.3-0.3,0.6-0.6,1-1
		c0.1-0.1,0.3-0.3,0.5-0.5c0.2-0.2,0.4-0.4,0.6-0.7c0.1-0.1,0.2-0.2,0.4-0.3c0.2-0.1,0.4-0.1,0.6-0.1c0.2,0,0.3,0,0.4,0.1
		c0.1,0.1,0.1,0.2,0.1,0.3c0,0.1,0,0.1,0,0.1c0,0.1,0,0.1,0,0.1c-0.1,0.2-0.1,0.5-0.2,0.8c-0.1,0.3-0.2,0.7-0.4,1.1
		c-0.1,0.3-0.3,0.6-0.4,1c-0.1,0.4-0.3,0.8-0.4,1.2l0.1,0.1c0.2-0.1,0.4-0.3,0.7-0.5c0.3-0.3,0.7-0.6,1.1-1.1l0.4,1
		c-0.1,0.1-0.1,0.1-0.2,0.2c-0.1,0.1-0.2,0.2-0.3,0.3c-0.8,0.6-1.5,1.1-2,1.6c-0.6,0.5-1,1.1-1.3,1.6c-0.5,0.8-0.9,1.5-1.2,2
		c-0.3,0.5-0.6,0.9-0.7,1.1c-0.5,0.7-1,1.1-1.4,1.5c-0.5,0.3-0.9,0.5-1.3,0.5c-0.2,0-0.3,0-0.3-0.1c-0.1-0.1-0.1-0.2-0.1-0.3
		c0-0.1,0-0.2,0.1-0.3c0-0.1,0.1-0.2,0.2-0.3c0.1-0.2,0.3-0.4,0.4-0.6l0.3-0.3c0-0.1,0-0.2,0-0.2c0,0,0.1-0.1,0.1-0.1
		c0.1-0.1,0.1-0.1,0.2-0.2c0.1-0.1,0.2-0.3,0.4-0.6c0.2-0.3,0.5-0.7,0.9-1.2c0.3-0.3,0.6-0.7,0.8-0.9c0.2-0.3,0.5-0.5,0.6-0.7
		c0-0.1,0.1-0.1,0.1-0.2c0-0.1,0.1-0.2,0.1-0.2c0.1-0.2,0.2-0.4,0.3-0.7c0.1-0.3,0.2-0.6,0.4-1c0.1-0.2,0.1-0.5,0.2-0.7
		c0.1-0.3,0.1-0.6,0.1-0.9c0,0,0-0.1,0-0.1c0,0,0-0.1-0.1-0.2c-0.1,0.1-0.3,0.2-0.4,0.3c-0.2,0.1-0.3,0.3-0.5,0.5
		c-0.2,0.3-0.5,0.6-0.7,0.8c-0.2,0.2-0.5,0.4-0.7,0.5c-0.2,0.3-0.4,0.5-0.6,0.7c-0.3,0.2-0.5,0.2-0.9,0.2c-0.2,0-0.4-0.1-0.5-0.2
		c-0.1-0.1-0.2-0.3-0.2-0.5c0,0,0-0.1,0-0.2c0-0.1,0-0.1,0.1-0.2c0-0.1-0.1-0.2-0.1-0.3c0-0.1,0.1-0.3,0.1-0.4c0-0.2,0-0.4-0.1-0.5
		c0-0.1-0.1-0.2-0.2-0.2l0,0c-0.1,0.1-0.2,0.1-0.3,0.3c-0.1,0.1-0.3,0.3-0.5,0.4c0-0.1-0.1-0.2-0.1-0.3c-0.1-0.1-0.1-0.3-0.2-0.5
		C179.3,62.6,179.2,62.5,179.1,62.4C179.2,62.5,179.2,62.4,179.1,62.4L179.1,62.4z M188.6,62.4c0.1,0.2,0.2,0.4,0.3,0.6
		c0.1,0.2,0.1,0.3,0.2,0.4c0.1-0.1,0.1-0.1,0.1-0.2c0-0.1,0.1-0.1,0.1-0.1c0.1-0.1,0.2-0.2,0.3-0.3c0.1-0.1,0.2-0.2,0.3-0.2
		c0,0,0.1-0.1,0.3-0.2c0.1-0.1,0.3-0.3,0.5-0.5c0.2-0.2,0.3-0.3,0.4-0.4c0.1-0.1,0.2-0.1,0.3-0.1c0.1,0,0.1,0,0.2,0
		c0,0,0.1,0.1,0.1,0.1c0,0.1,0,0.1,0,0.2c0,0.1,0,0.2-0.1,0.3c0,0.1-0.1,0.2-0.1,0.2c0,0.1,0,0.1,0,0.2c-0.2,0.6-0.3,1.1-0.5,1.6
		c-0.1,0.5-0.3,0.8-0.4,1.2c0,0.2,0,0.4,0.1,0.6c0,0.2,0.2,0.3,0.5,0.3c0.1,0,0.3,0,0.4-0.1c0.1,0,0.2-0.1,0.3-0.2
		c0.1-0.1,0.2-0.2,0.3-0.3c0.1-0.1,0.2-0.2,0.3-0.3c0.4-0.4,0.7-0.7,0.9-1c0.2-0.3,0.4-0.5,0.5-0.7c0.1-0.1,0.2-0.2,0.3-0.3
		c0.1-0.1,0.4-0.3,0.7-0.5c0.2-0.1,0.3-0.2,0.4-0.3c0.1-0.1,0.3-0.2,0.4-0.2l0.1,0c0.2,0.2,0.3,0.4,0.4,0.6c0.1,0.2,0.2,0.3,0.3,0.4
		c0.1,0.2,0.2,0.4,0.3,0.6c0.1,0.2,0.2,0.3,0.2,0.3c0.1,0.1,0.2,0.3,0.4,0.3c0.2,0.1,0.3,0.1,0.5,0.1c0.1,0,0.3,0,0.4-0.1
		c0.1-0.1,0.3-0.2,0.5-0.3c0.1-0.1,0.2-0.2,0.4-0.3c0.1-0.1,0.3-0.2,0.4-0.3l-0.4-1c-0.1,0.1-0.1,0.1-0.2,0.2
		c-0.1,0-0.2,0.1-0.3,0.1c-0.1,0-0.2-0.1-0.3-0.2c-0.1-0.1-0.2-0.3-0.3-0.5c-0.1-0.4-0.3-0.8-0.4-1.3c-0.1-0.2-0.3-0.4-0.4-0.5
		c-0.2-0.1-0.4-0.2-0.6-0.2c-0.1,0-0.3,0-0.4,0.1c-0.2,0.1-0.3,0.1-0.5,0.2c-0.2,0.1-0.3,0.2-0.5,0.3c-0.1,0.1-0.2,0.2-0.3,0.3
		c-0.1,0.1-0.1,0.1-0.2,0.2c0,0.1-0.1,0.1-0.1,0.1c-0.1,0.1-0.2,0.2-0.4,0.3c-0.1,0.1-0.2,0.2-0.3,0.4c-0.2,0.1-0.3,0.3-0.4,0.4
		c-0.1,0.1-0.2,0.2-0.3,0.3c0,0.1-0.1,0.1-0.1,0.1c0,0-0.1,0.1-0.1,0.1c-0.1-0.1-0.1-0.1-0.1-0.2c0,0,0-0.1,0-0.2
		c0-0.1,0-0.2,0.1-0.2c0.1-0.1,0.1-0.3,0.2-0.4c0.3-0.8,0.5-1.4,0.6-1.9c0.1-0.5,0.2-0.8,0.2-1c0-0.3-0.1-0.6-0.2-0.7
		c-0.1-0.2-0.3-0.2-0.6-0.2c-0.3,0-0.5,0.1-0.7,0.2c-0.2,0.1-0.5,0.3-0.7,0.5c-0.2,0.3-0.5,0.5-0.6,0.7c-0.2,0.2-0.3,0.4-0.4,0.5
		c-0.3,0.3-0.5,0.6-0.7,0.8c-0.2,0.2-0.3,0.4-0.5,0.5c-0.1,0.1-0.3,0.3-0.4,0.4c-0.1,0.1-0.2,0.2-0.3,0.3c-0.1,0.1-0.1,0.2-0.2,0.2
		C188.7,62.3,188.6,62.4,188.6,62.4L188.6,62.4z M199.1,62.4c0-0.1,0.1-0.1,0.1-0.2c0-0.1,0.1-0.1,0.2-0.2c0.1-0.1,0.2-0.1,0.3-0.3
		c0.1-0.1,0.2-0.2,0.4-0.4c0.1-0.1,0.3-0.3,0.5-0.5c0.2-0.2,0.4-0.5,0.7-0.8c0.1-0.1,0.3-0.3,0.4-0.5c0.2-0.2,0.4-0.4,0.6-0.7
		c0.2-0.2,0.4-0.4,0.7-0.5c0.2-0.1,0.5-0.2,0.7-0.2s0.5,0.1,0.6,0.2c0.1,0.2,0.2,0.4,0.2,0.7c0,0.2-0.1,0.5-0.2,1
		c-0.1,0.5-0.3,1.1-0.6,1.9c-0.1,0.1-0.1,0.3-0.2,0.4c0,0.1-0.1,0.2-0.1,0.2c0,0.1,0,0.1,0,0.2c0,0,0,0.1,0.1,0.2
		c0,0,0.1-0.1,0.1-0.1c0,0,0.1-0.1,0.1-0.1c0.1-0.1,0.2-0.2,0.3-0.3c0.1-0.1,0.3-0.2,0.4-0.4c0.1-0.1,0.1-0.2,0.3-0.4
		c0.1-0.1,0.2-0.2,0.4-0.3c0,0,0.1-0.1,0.1-0.1c0-0.1,0.1-0.1,0.2-0.2c0.1-0.1,0.2-0.2,0.3-0.3c0.1-0.1,0.3-0.2,0.5-0.3
		c0.2-0.1,0.4-0.2,0.5-0.2c0.2-0.1,0.3-0.1,0.4-0.1c0.2,0,0.4,0.1,0.6,0.2c0.2,0.1,0.3,0.3,0.4,0.5c0.1,0.5,0.3,0.9,0.4,1.3
		c0.1,0.2,0.2,0.4,0.3,0.5c0.1,0.1,0.2,0.2,0.3,0.2c0.1,0,0.2,0,0.3-0.1c0.1,0,0.1-0.1,0.2-0.2l0.4,1c-0.1,0.1-0.2,0.2-0.4,0.3
		c-0.1,0.1-0.3,0.2-0.4,0.3c-0.2,0.2-0.3,0.3-0.5,0.3c-0.1,0.1-0.3,0.1-0.4,0.1c-0.2,0-0.3,0-0.5-0.1c-0.2-0.1-0.3-0.2-0.4-0.3
		c-0.1-0.1-0.1-0.2-0.2-0.3c-0.1-0.2-0.2-0.3-0.3-0.6c-0.1-0.1-0.2-0.2-0.3-0.4c-0.1-0.2-0.3-0.3-0.4-0.6l-0.1,0
		c-0.1,0-0.3,0.1-0.4,0.2c-0.1,0.1-0.3,0.2-0.4,0.3c-0.3,0.3-0.6,0.5-0.7,0.5c-0.1,0.1-0.2,0.2-0.3,0.3c-0.1,0.2-0.3,0.4-0.5,0.7
		c-0.2,0.3-0.6,0.6-0.9,1c-0.1,0.1-0.2,0.2-0.3,0.3c-0.1,0.1-0.2,0.2-0.3,0.3c-0.1,0.1-0.2,0.1-0.3,0.2c-0.1,0-0.3,0.1-0.4,0.1
		c-0.3,0-0.5-0.1-0.5-0.3c0-0.2-0.1-0.4-0.1-0.6c0.1-0.3,0.2-0.7,0.4-1.2c0.1-0.5,0.3-1,0.5-1.6c0,0,0-0.1,0-0.2
		c0-0.1,0.1-0.1,0.1-0.2c0-0.1,0.1-0.2,0.1-0.3c0-0.1,0-0.1,0-0.2c0-0.1,0-0.1-0.1-0.1c0,0-0.1,0-0.2,0c-0.1,0-0.2,0-0.3,0.1
		c-0.1,0.1-0.3,0.2-0.4,0.4c-0.2,0.2-0.4,0.4-0.5,0.5c-0.1,0.1-0.2,0.2-0.3,0.2c-0.1,0.1-0.2,0.1-0.3,0.2c-0.1,0.1-0.2,0.2-0.3,0.3
		c0,0,0,0.1-0.1,0.1c0,0.1-0.1,0.1-0.1,0.2c0-0.1-0.1-0.2-0.2-0.4C199.3,62.9,199.2,62.7,199.1,62.4L199.1,62.4z M209.9,61.9
		c-0.1,0.1-0.1,0.2-0.2,0.3c-0.1,0.1-0.1,0.1-0.1,0.2c0.1,0.1,0.1,0.3,0.2,0.4c0.1,0.1,0.1,0.2,0.2,0.3c0,0.1,0.1,0.1,0.1,0.1
		c0,0,0,0.1,0,0.1c0,0.1,0,0.1,0,0.2c-0.2,0.2-0.3,0.3-0.4,0.5c-0.1,0.2-0.1,0.4-0.1,0.6c0,0.4,0.1,0.6,0.2,0.8
		c0.2,0.2,0.4,0.3,0.8,0.3c0.1,0,0.1,0,0.2-0.1c0.1,0,0.2-0.1,0.4-0.2c0.2-0.1,0.5-0.3,0.7-0.4c0.2-0.1,0.4-0.2,0.5-0.4
		c0.1-0.1,0.2-0.2,0.4-0.4c0.2-0.2,0.4-0.4,0.6-0.6c0.2-0.2,0.4-0.3,0.5-0.4c0.1-0.1,0.3-0.2,0.4-0.3c0.1-0.1,0.1-0.1,0.2-0.2
		c0,0,0.1-0.1,0.1-0.1c0.1,0.1,0.1,0.1,0.1,0.2c0,0.1,0,0.1,0,0.2c0,0.5,0.2,1,0.5,1.2c0.3,0.3,0.6,0.4,1.1,0.4c0.2,0,0.4,0,0.6-0.1
		c0.2-0.1,0.4-0.2,0.6-0.4c0.2-0.1,0.4-0.3,0.5-0.5c0.2-0.2,0.3-0.3,0.5-0.5c0-0.1-0.1-0.3-0.2-0.4c-0.1-0.2-0.2-0.4-0.3-0.6
		c-0.1,0.1-0.1,0.1-0.2,0.1c-0.1,0-0.1,0.1-0.1,0.1c-0.1,0.1-0.1,0.1-0.1,0.2c0,0.1-0.1,0.1-0.1,0.2c-0.1,0.1-0.1,0.1-0.2,0.1
		c-0.1,0-0.1,0.1-0.2,0.1c-0.2,0-0.4-0.1-0.5-0.3c-0.1-0.2-0.2-0.4-0.2-0.6c0-0.3,0-0.7,0-1c0-0.2-0.1-0.4-0.1-0.5
		c-0.1-0.1-0.2-0.2-0.3-0.2c-0.2,0-0.5,0.1-0.8,0.3c-0.3,0.2-0.6,0.5-0.9,0.9c-0.1,0-0.1,0.1-0.2,0.1c-0.1,0-0.1,0.1-0.2,0.1
		c-0.1,0-0.2,0.1-0.3,0.3c-0.2,0.1-0.4,0.3-0.6,0.6c-0.2,0.2-0.4,0.4-0.6,0.5c-0.2,0.1-0.3,0.2-0.5,0.3l-0.1-0.1
		c0.2-0.3,0.4-0.5,0.5-0.7c0.1-0.2,0.2-0.3,0.3-0.3c0.4-0.4,0.7-0.7,1-0.9c0.2-0.3,0.4-0.5,0.5-0.6c0.2-0.1,0.3-0.2,0.4-0.3
		c0.1-0.1,0.2-0.2,0.2-0.2c0.1-0.1,0.1-0.2,0.2-0.2c0.2-0.2,0.4-0.3,0.6-0.5c0.2-0.2,0.3-0.3,0.4-0.5c0.2-0.2,0.4-0.3,0.6-0.4
		c0.1-0.1,0.2-0.2,0.3-0.3c0.1-0.1,0.1-0.2,0.1-0.4c0-0.1,0-0.3-0.1-0.3c-0.1-0.1-0.2-0.1-0.4-0.1c-0.3,0-0.8,0.2-1.3,0.5
		c-0.5,0.3-1.1,0.8-1.7,1.4c-0.1,0.1-0.3,0.2-0.4,0.3c-0.1,0.1-0.2,0.1-0.3,0.2c-0.2,0.1-0.3,0.3-0.4,0.4c-0.1,0.1-0.2,0.2-0.2,0.3
		c-0.1,0.1-0.2,0.1-0.3,0.2c-0.1,0.1-0.2,0.1-0.2,0.2c-0.1,0.1-0.1,0.2-0.2,0.3c-0.1,0.1-0.1,0.1-0.1,0.2L209.9,61.9L209.9,61.9z
		 M233.2,63.2c-0.1,0.1-0.1,0.1-0.2,0.2c-0.1,0.1-0.1,0.1-0.2,0.2c-0.2,0.1-0.3,0.3-0.5,0.4c-0.2,0.1-0.3,0.2-0.5,0.3
		c-0.1,0.1-0.2,0.1-0.3,0.2c-0.1,0.1-0.2,0.1-0.3,0.1c-0.1,0-0.2,0.1-0.3,0.1c-0.1,0-0.2,0-0.3,0c-0.1,0-0.3,0-0.4-0.1
		c-0.1,0-0.2-0.1-0.4-0.1c-0.1-0.1-0.3-0.2-0.4-0.3c-0.1-0.1-0.3-0.2-0.4-0.4c-0.1-0.1-0.2-0.2-0.3-0.3c-0.1-0.1-0.2-0.2-0.3-0.4
		c0,0.1-0.1,0.1-0.1,0.2c-0.1,0.1-0.1,0.1-0.1,0.2c-0.1,0.1-0.2,0.2-0.3,0.3c-0.1,0.1-0.2,0.2-0.3,0.3c-0.1,0.1-0.2,0.2-0.3,0.3
		c-0.1,0.1-0.1,0.1-0.3,0.3c-0.1,0.1-0.2,0.2-0.3,0.4c-0.1,0.1-0.2,0.2-0.2,0.3c-0.2,0.2-0.5,0.4-0.6,0.6c-0.2,0.1-0.3,0.2-0.4,0.2
		c-0.3-0.1-0.5-0.2-0.6-0.3c-0.1-0.1-0.2-0.3-0.3-0.6c-0.1-0.2-0.1-0.5,0-0.7c0-0.3,0.1-0.5,0.1-0.8c0-0.2,0.1-0.4,0.2-0.6
		c0.1-0.2,0.1-0.4,0.2-0.6c0.1-0.3,0.1-0.5,0.2-0.7c0.1-0.2,0.1-0.3,0-0.3c0,0-0.1,0-0.2,0.2c-0.1,0.1-0.2,0.3-0.3,0.5
		c-0.2,0.2-0.3,0.4-0.5,0.6c-0.2,0.2-0.4,0.4-0.6,0.6l-0.4-1c0.3-0.2,0.6-0.6,1-1c0.4-0.4,0.8-0.9,1.3-1.5c0.5-0.6,0.9-1.1,1.1-1.4
		c0.2-0.3,0.4-0.3,0.7-0.2c0.1,0,0.1,0.1,0.2,0.1c0.1,0.1,0.1,0.1,0.1,0.2c0,0.1,0,0.1,0,0.3c0,0.1,0,0.2,0,0.3c0,0.1,0,0.2-0.1,0.2
		c-0.1,0.1-0.1,0.2-0.1,0.2c0,0.1,0,0.2,0,0.3c0,0.1,0,0.2,0,0.3c0,0.1-0.1,0.3-0.1,0.4c0,0.1-0.1,0.3-0.1,0.5
		c0,0.2-0.1,0.3-0.1,0.5c-0.1,0.2-0.1,0.3-0.2,0.5c0,0.1-0.1,0.2-0.1,0.3c0,0.1-0.1,0.2-0.1,0.3c0,0.1,0,0.2-0.1,0.4
		c0,0.1,0,0.2,0,0.3c0,0.2,0,0.3,0.1,0.3c0.1,0,0.2-0.1,0.3-0.3c0.1-0.1,0.2-0.3,0.3-0.5c0.1-0.2,0.2-0.3,0.3-0.4
		c0.1-0.1,0.1-0.1,0.2-0.2c0.1-0.1,0.1-0.1,0.1-0.2c0-0.1-0.1-0.1-0.1-0.2c-0.1-0.1-0.1-0.1-0.1-0.2c0-0.1,0-0.2,0-0.2
		c0-0.1,0.1-0.2,0.1-0.2c0-0.1,0.1-0.2,0.1-0.3c0.1-0.1,0.1-0.2,0.2-0.3c0.1-0.1,0.3-0.2,0.4-0.3c0.1-0.1,0.2-0.1,0.3-0.1
		c0.5-0.8,0.9-1.5,1.2-2c0.3-0.6,0.5-0.9,0.6-1.1c0.1-0.1,0.2-0.2,0.3-0.3c0.2-0.1,0.3-0.1,0.4-0.1c0.1,0,0.3,0.1,0.4,0.2
		c0.1,0.1,0.1,0.4,0.1,0.6c0,0.1,0,0.1-0.1,0.2c0,0.1-0.1,0.2-0.2,0.3c-0.1,0.1-0.1,0.3-0.3,0.4c-0.1,0.2-0.2,0.3-0.3,0.5
		c0,0.1-0.1,0.1-0.1,0.2c0,0.1-0.1,0.2-0.1,0.2c-0.1,0.1-0.1,0.2-0.3,0.4c-0.1,0.2-0.2,0.4-0.3,0.5c-0.1,0.2-0.2,0.3-0.3,0.4
		c-0.1,0.1-0.2,0.2-0.3,0.4c0.1,0.1,0.1,0.2,0.2,0.3c0.1,0.1,0.1,0.2,0.2,0.3c0.1,0.1,0.1,0.2,0.2,0.3c0.1,0.1,0.2,0.2,0.2,0.3
		c0.1,0.1,0.2,0.1,0.3,0.2c0.1,0,0.2,0.1,0.3,0.1c0.1,0,0.2,0,0.4,0c0.1,0,0.3-0.1,0.4-0.1c0.1,0,0.2-0.1,0.3-0.2
		c0.1-0.1,0.2-0.1,0.3-0.2c0.1-0.1,0.1-0.1,0.2-0.2c0.1-0.1,0.1-0.1,0.2-0.2L233.2,63.2L233.2,63.2z M232.6,62.4
		c0.1,0.2,0.2,0.3,0.2,0.5c0.1,0.2,0.1,0.3,0.2,0.5c0.1-0.1,0.1-0.1,0.1-0.2c0-0.1,0.1-0.1,0.1-0.1c0.3-0.2,0.5-0.4,0.6-0.5
		c0.1-0.1,0.2-0.2,0.3-0.2c0.1,0,0.1,0,0.1,0c0,0,0.1,0.1,0.1,0.1c0,0.1,0,0.2-0.1,0.5c-0.1,0.3-0.1,0.5-0.1,0.7
		c0,0.4,0.2,0.8,0.5,1.2c0.3,0.3,0.7,0.5,1.1,0.5c0.1,0,0.1,0,0.3,0c0.1,0,0.2,0,0.2,0c0.1,0,0.3,0,0.4-0.1c0.1,0,0.3-0.1,0.5-0.2
		c0.3-0.1,0.6-0.3,0.9-0.5c0.3-0.2,0.5-0.4,0.7-0.7c0.1,0.1,0.2,0.3,0.3,0.3c0.1,0.1,0.2,0.1,0.4,0.1c0.1,0,0.3,0,0.4-0.1
		c0.1-0.1,0.3-0.2,0.5-0.3c0.1-0.1,0.3-0.2,0.4-0.3c0.1-0.1,0.2-0.2,0.4-0.3c-0.1-0.2-0.1-0.3-0.2-0.5c-0.1-0.2-0.1-0.3-0.2-0.5
		c-0.1,0.1-0.2,0.1-0.2,0.2c-0.1,0-0.1,0.1-0.2,0.1c-0.1,0-0.1,0-0.1-0.1c0,0-0.1-0.1-0.1-0.2c0.1-0.1,0.2-0.2,0.2-0.3
		c0.1-0.1,0.2-0.3,0.2-0.5c0.1-0.2,0.1-0.4,0.1-0.6c0-0.2,0-0.3,0-0.4c0-0.7-0.1-1.1-0.4-1.5c-0.3-0.3-0.7-0.5-1.2-0.5
		c-0.1,0-0.2,0-0.3,0.1c-0.2,0.1-0.4,0.2-0.8,0.3l-0.1-0.1c0.1-0.2,0.2-0.3,0.2-0.5c0-0.1-0.1-0.1-0.1-0.2c-0.1,0-0.2-0.1-0.4-0.1
		c-0.1,0-0.3,0-0.4,0.1c-0.1,0.1-0.2,0.1-0.4,0.2c-0.1,0.1-0.2,0.2-0.3,0.3c-0.1,0.1-0.2,0.2-0.3,0.3c-0.1,0.1-0.2,0.2-0.3,0.2
		c-0.1,0.1-0.2,0.2-0.3,0.3c-0.1,0.1-0.2,0.2-0.3,0.3c-0.1,0.1-0.1,0.2-0.2,0.3c-0.3,0.3-0.6,0.5-0.8,0.7c-0.2,0.2-0.4,0.4-0.5,0.5
		l-0.8,0.6c-0.1,0.1-0.1,0.2-0.2,0.3C232.7,62.3,232.7,62.4,232.6,62.4L232.6,62.4z M237.9,60.4c0.2,0,0.4,0.1,0.5,0.1
		c0.1,0,0.2,0.1,0.2,0.1c0.1,0,0.1,0.1,0.2,0.2c0.1,0.1,0.1,0.3,0.2,0.5l-0.2,0.6c0,0.1-0.1,0.3-0.1,0.4c0,0.1-0.1,0.2-0.1,0.2
		c-0.1,0.1-0.2,0.3-0.3,0.4c-0.2,0.4-0.5,0.7-0.8,0.8c-0.3,0.2-0.6,0.3-0.9,0.3c-0.2,0-0.4-0.1-0.5-0.2c-0.1-0.1-0.2-0.3-0.2-0.5
		c0-0.1,0-0.2,0.1-0.4c0-0.2,0.1-0.3,0.2-0.6c0.1-0.3,0.2-0.5,0.2-0.6c0.1-0.1,0.2-0.2,0.2-0.2c0.1,0,0.2-0.1,0.3-0.1
		c0.1,0,0.2-0.1,0.3-0.2c0.1-0.2,0.2-0.4,0.3-0.5c0.1-0.1,0.1-0.2,0.2-0.3C237.8,60.5,237.9,60.4,237.9,60.4L237.9,60.4z
		 M251.9,63.3c-0.1,0.1-0.3,0.3-0.4,0.4c-0.1,0.1-0.3,0.2-0.4,0.3c-0.2,0.2-0.4,0.3-0.6,0.4c-0.2,0.1-0.4,0.2-0.6,0.3
		c-0.2,0.1-0.4,0.1-0.6,0.1c-0.2,0-0.3,0-0.5-0.1c-0.1-0.1-0.2-0.2-0.3-0.3c-0.1-0.1-0.1-0.3-0.1-0.4c0-0.2,0-0.4,0.1-0.6
		c0-0.2,0.1-0.4,0.2-0.6c0-0.1,0.1-0.2,0.1-0.3c0.1-0.1,0.1-0.2,0.1-0.3c0.1-0.2,0.2-0.4,0.2-0.6c0.1-0.2,0.1-0.3,0-0.3
		c0,0-0.1,0-0.2,0.1c-0.1,0.1-0.3,0.2-0.4,0.4c-0.1,0.1-0.3,0.3-0.4,0.5c-0.2,0.2-0.3,0.4-0.5,0.6c-0.1,0.2-0.3,0.3-0.4,0.5
		c-0.2,0.2-0.3,0.4-0.5,0.6c-0.1,0.1-0.1,0.2-0.2,0.3c0,0.1-0.1,0.2-0.2,0.3c-0.1,0.2-0.2,0.3-0.3,0.4c-0.1,0.1-0.2,0.2-0.2,0.2
		c-0.1,0.1-0.3,0.2-0.5,0.1c-0.2-0.1-0.3-0.2-0.3-0.4c0,0,0-0.1-0.1-0.1c0-0.1-0.1-0.1-0.1-0.2c0-0.1,0-0.2,0.1-0.4
		c0.1-0.1,0.1-0.3,0.1-0.4c0-0.1,0-0.2,0-0.4c0-0.1,0-0.3,0-0.4c0-0.2,0-0.4,0-0.5c0-0.2,0-0.3,0-0.5c0-0.1,0-0.3,0-0.4
		c0-0.1,0-0.3,0-0.4c0-0.2,0-0.4,0.1-0.5c0-0.2,0-0.3,0-0.4c0-0.1,0-0.1-0.1-0.1c0,0-0.1,0-0.1,0.1c0,0.1-0.1,0.2-0.1,0.4
		c0,0.2,0,0.3-0.1,0.4c-0.1,0.2-0.2,0.4-0.3,0.7c-0.1,0.2-0.2,0.5-0.3,0.7c-0.1,0.2-0.1,0.3-0.2,0.5c-0.1,0.2-0.1,0.3-0.2,0.5
		c-0.1,0.1-0.1,0.2-0.2,0.3c-0.1,0.1-0.2,0.2-0.2,0.3c-0.1,0.1-0.1,0.2-0.1,0.4c0,0.1-0.1,0.2-0.1,0.3c-0.1,0.1-0.2,0.3-0.2,0.4
		c-0.1,0.1-0.2,0.3-0.2,0.4c-0.1,0.1-0.2,0.2-0.3,0.3c-0.1,0.1-0.2,0.2-0.3,0.2c-0.1,0.1-0.2,0.1-0.3,0.1c-0.2,0-0.3,0-0.4,0
		c-0.1,0-0.1,0-0.2,0c-0.1,0-0.1-0.1-0.2-0.1c-0.1,0-0.1-0.1-0.2-0.2c-0.1-0.1-0.1-0.2-0.2-0.3c0-0.1-0.1-0.1-0.1-0.2
		c-0.1-0.1-0.1-0.2-0.1-0.3c0-0.1-0.1-0.2-0.1-0.4c0-0.1,0-0.3,0-0.5c0-0.1,0-0.3,0-0.5c0-0.2,0-0.4,0.1-0.6c0-0.1,0-0.3,0-0.4
		c0-0.1,0.1-0.3,0.1-0.4c0-0.1,0.2-0.2,0.5-0.1c0.3,0,0.4,0.1,0.4,0.1c0,0,0,0.1,0,0.2c0,0.1,0,0.2,0,0.2c0,0.1,0,0.3,0,0.4
		c0,0.2,0,0.3,0.1,0.5c0,0.1,0.1,0.2,0.1,0.3c0.1,0.1,0.1,0.1,0.2,0.1c0.1,0,0.2,0,0.3-0.1c0.1-0.1,0.2-0.1,0.3-0.2
		c0.1-0.1,0.1-0.2,0.2-0.3c0.1-0.1,0.1-0.2,0.2-0.3c0-0.1,0.1-0.2,0.1-0.3c0-0.1,0.1-0.2,0.1-0.3c0.1-0.1,0.1-0.2,0.2-0.3
		c0.1-0.1,0.1-0.2,0.1-0.3c0,0,0.1-0.1,0.1-0.2c0-0.1,0.1-0.1,0.1-0.2c0-0.1,0-0.1,0.1-0.2c0-0.1,0-0.1,0-0.2c0-0.1,0.1-0.2,0.1-0.3
		c0-0.1,0-0.2,0.1-0.3c0-0.1,0.1-0.2,0.1-0.2c0.1-0.1,0.1-0.2,0.1-0.2c0-0.1,0.1-0.1,0.1-0.2c0-0.1,0.1-0.1,0.1-0.2
		c0-0.1,0-0.1,0-0.2c0-0.1,0-0.2,0-0.2c0-0.1,0.1-0.2,0.1-0.3c0-0.1,0.1-0.2,0.1-0.3c0-0.1,0.1-0.2,0.1-0.3c0-0.1,0.1-0.2,0.1-0.3
		c0-0.1,0.1-0.1,0.2-0.2c0.1-0.1,0.2-0.1,0.3-0.2c0.1,0,0.2-0.1,0.3-0.1c0.1-0.1,0.2-0.1,0.3-0.1c0.1,0,0.2-0.1,0.4-0.1
		c0.1,0,0.2,0,0.3,0c0.1,0,0.2,0,0.3,0.1c0.1,0.1,0.1,0.1,0.1,0.2c0,0.1,0,0.2,0,0.4c0,0.1,0,0.3,0,0.4c0,0.1,0,0.3,0,0.4
		c0,0.1,0,0.3,0,0.4c0,0.2,0,0.3,0,0.4c0,0.1,0,0.2,0,0.4c0,0.2,0,0.4-0.1,0.6c0,0.2,0,0.3,0,0.5c0,0.2,0,0.4,0.1,0.7
		c0.2-0.1,0.4-0.3,0.5-0.4c0,0,0.1-0.1,0.1-0.1c0.1,0,0.1,0,0.1-0.1c0,0,0.1-0.1,0.1-0.1c0-0.1,0.1-0.1,0.1-0.1c0,0,0.1-0.1,0.2-0.1
		c0.1,0,0.1-0.1,0.2-0.1c0-0.1,0.1-0.1,0.1-0.2c0-0.1,0.1-0.1,0.1-0.2c0.1-0.1,0.1-0.2,0.2-0.2c0.1-0.1,0.1-0.2,0.2-0.2
		c0.1-0.1,0.2-0.2,0.4-0.4c0.1-0.1,0.2-0.2,0.3-0.4c0.1-0.2,0.3-0.3,0.3-0.4c0.1-0.1,0.2-0.2,0.3-0.4c0,0,0.1-0.1,0.3-0.1
		c0.2,0,0.4,0,0.5,0c0.1,0,0.2,0.1,0.3,0.1c0.1,0.1,0.1,0.2,0.1,0.3c0,0.1-0.1,0.2-0.1,0.3c-0.1,0.2-0.1,0.3-0.2,0.5
		c0,0.1-0.1,0.2-0.1,0.3c0,0.1-0.1,0.2-0.1,0.4c0,0.1-0.1,0.3-0.1,0.4c0,0.1-0.1,0.2-0.1,0.3c-0.1,0.2-0.1,0.3-0.2,0.5
		c-0.1,0.2-0.1,0.3-0.1,0.5c0,0.3-0.1,0.5-0.1,0.7c0,0.2,0.1,0.3,0.1,0.3c0.1,0,0.2,0,0.3,0c0.1-0.1,0.3-0.1,0.4-0.3
		c0.1-0.1,0.2-0.1,0.3-0.2c0.1-0.1,0.2-0.2,0.2-0.2L251.9,63.3L251.9,63.3z M251.4,62.4c0.1,0.2,0.2,0.4,0.3,0.6
		c0.1,0.2,0.1,0.3,0.2,0.4c0.1-0.1,0.1-0.1,0.1-0.2c0-0.1,0.1-0.1,0.1-0.1c0.1-0.1,0.2-0.2,0.3-0.3c0.1-0.1,0.2-0.2,0.3-0.2
		c0,0,0.1-0.1,0.3-0.2c0.1-0.1,0.3-0.3,0.5-0.5c0.2-0.2,0.3-0.3,0.4-0.4c0.1-0.1,0.2-0.1,0.3-0.1c0.1,0,0.1,0,0.2,0
		c0,0,0.1,0.1,0.1,0.1c0,0.1,0,0.1,0,0.2c0,0.1,0,0.2-0.1,0.3c0,0.1-0.1,0.2-0.1,0.2c0,0.1,0,0.1,0,0.2c-0.2,0.6-0.3,1.1-0.5,1.6
		c-0.1,0.5-0.3,0.8-0.4,1.2c0,0.2,0,0.4,0.1,0.6c0,0.2,0.2,0.3,0.5,0.3c0.1,0,0.3,0,0.4-0.1c0.1,0,0.2-0.1,0.3-0.2
		c0.1-0.1,0.2-0.2,0.3-0.3c0.1-0.1,0.2-0.2,0.3-0.3c0.4-0.4,0.7-0.7,0.9-1c0.2-0.3,0.4-0.5,0.5-0.7c0.1-0.1,0.2-0.2,0.3-0.3
		c0.1-0.1,0.4-0.3,0.7-0.5c0.2-0.1,0.3-0.2,0.4-0.3c0.1-0.1,0.3-0.2,0.4-0.2l0.1,0c0.2,0.2,0.3,0.4,0.4,0.6c0.1,0.2,0.2,0.3,0.3,0.4
		c0.1,0.2,0.2,0.4,0.3,0.6c0.1,0.2,0.2,0.3,0.2,0.3c0.1,0.1,0.2,0.3,0.4,0.3c0.2,0.1,0.3,0.1,0.5,0.1c0.1,0,0.3,0,0.4-0.1
		c0.1-0.1,0.3-0.2,0.5-0.3c0.1-0.1,0.2-0.2,0.4-0.3c0.1-0.1,0.3-0.2,0.4-0.3l-0.4-1c-0.1,0.1-0.1,0.1-0.2,0.2
		c-0.1,0-0.2,0.1-0.3,0.1c-0.1,0-0.2-0.1-0.3-0.2c-0.1-0.1-0.2-0.3-0.3-0.5c-0.1-0.4-0.3-0.8-0.4-1.3c-0.1-0.2-0.3-0.4-0.4-0.5
		c-0.2-0.1-0.4-0.2-0.6-0.2c-0.1,0-0.3,0-0.4,0.1c-0.2,0.1-0.3,0.1-0.5,0.2c-0.2,0.1-0.3,0.2-0.5,0.3c-0.1,0.1-0.2,0.2-0.3,0.3
		c-0.1,0.1-0.1,0.1-0.2,0.2c0,0.1-0.1,0.1-0.1,0.1c-0.1,0.1-0.2,0.2-0.4,0.3c-0.1,0.1-0.2,0.2-0.3,0.4c-0.2,0.1-0.3,0.3-0.4,0.4
		c-0.1,0.1-0.2,0.2-0.3,0.3c0,0.1-0.1,0.1-0.1,0.1c0,0-0.1,0.1-0.1,0.1c-0.1-0.1-0.1-0.1-0.1-0.2c0,0,0-0.1,0-0.2
		c0-0.1,0-0.2,0.1-0.2c0.1-0.1,0.1-0.3,0.2-0.4c0.3-0.8,0.5-1.4,0.6-1.9c0.1-0.5,0.2-0.8,0.2-1c0-0.3-0.1-0.6-0.2-0.7
		c-0.1-0.2-0.3-0.2-0.6-0.2c-0.3,0-0.5,0.1-0.7,0.2c-0.2,0.1-0.5,0.3-0.7,0.5c-0.2,0.3-0.5,0.5-0.6,0.7c-0.2,0.2-0.3,0.4-0.4,0.5
		c-0.3,0.3-0.5,0.6-0.7,0.8c-0.2,0.2-0.3,0.4-0.5,0.5c-0.1,0.1-0.3,0.3-0.4,0.4c-0.1,0.1-0.2,0.2-0.3,0.3c-0.1,0.1-0.1,0.2-0.2,0.2
		C251.4,62.3,251.4,62.4,251.4,62.4L251.4,62.4z M262.2,61.9l1-0.7c0,0,0.1-0.1,0.1-0.2c0.1-0.1,0.1-0.1,0.2-0.3
		c0.1-0.1,0.1-0.2,0.2-0.2c0.1-0.1,0.2-0.1,0.3-0.2c0.1-0.1,0.1-0.2,0.2-0.3c0.1-0.1,0.2-0.2,0.4-0.4c0.1,0,0.2-0.1,0.3-0.2
		c0.1-0.1,0.3-0.2,0.4-0.3c0.7-0.6,1.2-1.1,1.7-1.4c0.5-0.3,0.9-0.5,1.3-0.5c0.2,0,0.3,0,0.4,0.1c0.1,0.1,0.1,0.2,0.1,0.3
		c0,0.2,0,0.3-0.1,0.4c-0.1,0.1-0.1,0.2-0.3,0.3c-0.2,0.1-0.4,0.3-0.6,0.4c-0.1,0.2-0.3,0.3-0.4,0.5c-0.2,0.2-0.4,0.3-0.6,0.5
		c-0.1,0.1-0.1,0.2-0.2,0.2c0,0-0.1,0.1-0.2,0.2c-0.1,0.1-0.2,0.2-0.4,0.3c-0.1,0.2-0.2,0.4-0.5,0.6c-0.2,0.3-0.6,0.6-1,0.9
		c-0.1,0.1-0.1,0.2-0.3,0.3c-0.1,0.2-0.3,0.4-0.5,0.7l0.1,0.1c0.2-0.1,0.3-0.1,0.5-0.3c0.2-0.1,0.4-0.3,0.6-0.5
		c0.2-0.2,0.5-0.4,0.6-0.6c0.2-0.1,0.3-0.2,0.3-0.3c0.1,0,0.1-0.1,0.2-0.1c0.1,0,0.1-0.1,0.2-0.1c0.3-0.4,0.6-0.7,0.9-0.9
		c0.3-0.2,0.6-0.3,0.8-0.3c0.2,0,0.3,0.1,0.3,0.2c0.1,0.1,0.1,0.3,0.1,0.5c0,0.4,0,0.7,0,1c0,0.2,0.1,0.4,0.2,0.6
		c0.1,0.2,0.3,0.3,0.5,0.3c0.1,0,0.1,0,0.2-0.1c0.1,0,0.1-0.1,0.2-0.1c0.1-0.1,0.1-0.1,0.1-0.2c0-0.1,0.1-0.1,0.1-0.2
		c0,0,0.1,0,0.1-0.1c0.1,0,0.1-0.1,0.2-0.1c0.1,0.2,0.2,0.4,0.3,0.6c0.1,0.2,0.1,0.3,0.2,0.4c-0.2,0.2-0.3,0.3-0.5,0.5
		c-0.2,0.2-0.3,0.3-0.5,0.5c-0.2,0.2-0.4,0.3-0.6,0.4c-0.2,0.1-0.4,0.1-0.6,0.1c-0.5,0-0.8-0.1-1.1-0.4c-0.3-0.3-0.4-0.7-0.5-1.2
		c0-0.1,0-0.1,0-0.2c0-0.1-0.1-0.1-0.1-0.2c0,0-0.1,0.1-0.1,0.1c0,0-0.1,0.1-0.2,0.2c-0.1,0.1-0.2,0.2-0.4,0.3
		c-0.1,0.1-0.3,0.2-0.5,0.4c-0.3,0.3-0.5,0.5-0.6,0.6c-0.2,0.2-0.3,0.3-0.4,0.4c-0.1,0.1-0.3,0.2-0.5,0.4c-0.2,0.1-0.4,0.3-0.7,0.4
		c-0.2,0.1-0.3,0.1-0.4,0.2c-0.1,0-0.2,0.1-0.2,0.1c-0.3,0-0.6-0.1-0.8-0.3c-0.2-0.2-0.2-0.4-0.2-0.8c0-0.2,0-0.4,0.1-0.6
		c0.1-0.2,0.2-0.3,0.4-0.5c0-0.1,0-0.2,0-0.2c0,0,0-0.1,0-0.1c0,0,0-0.1-0.1-0.1c0-0.1-0.1-0.2-0.2-0.3c-0.1-0.1-0.1-0.3-0.2-0.4
		c0,0,0.1-0.1,0.1-0.2C262,62.2,262.1,62.1,262.2,61.9L262.2,61.9z M280.3,63.4l-0.4-1c0,0.1-0.1,0.1-0.1,0.1c0,0,0,0.1-0.1,0.1
		c-0.1,0.1-0.1,0.2-0.2,0.2c-0.1,0.1-0.2,0.2-0.2,0.2c-0.1,0.1-0.2,0.1-0.2,0.2c-0.1,0.1-0.2,0.1-0.3,0.2c-0.1,0-0.2,0.1-0.3,0.1
		c-0.1,0-0.1,0-0.2,0c-0.1,0-0.1-0.1-0.2-0.2c0-0.1,0-0.3,0-0.5c0-0.1,0-0.2,0-0.2c0-0.1,0-0.2,0-0.3c0-0.1,0-0.2,0.1-0.2
		c0-0.1,0-0.1,0.1-0.2c0.2,0,0.3-0.1,0.3-0.1c0,0,0.1-0.2,0.1-0.4c0.1-0.1,0.1-0.2,0.2-0.3c0-0.1,0-0.2-0.1-0.3
		c-0.2,0-0.2-0.1-0.3-0.1c0-0.1,0.1-0.2,0.1-0.3c0-0.1,0.1-0.2,0.1-0.3c0.1-0.2,0.1-0.5,0.2-0.7c0.1-0.2,0.2-0.5,0.2-0.7
		c0-0.1,0.1-0.2,0.1-0.3c0-0.1,0.1-0.2,0.1-0.2c0-0.1-0.1-0.1-0.3-0.1c-0.2,0-0.4,0-0.6,0c-0.2,0.1-0.4,0.1-0.6,0.2
		c-0.2,0.1-0.3,0.2-0.4,0.3c0,0.1-0.1,0.2-0.1,0.3c0,0.1-0.1,0.2-0.1,0.3c0,0.1,0,0.2-0.1,0.2c0,0.1,0,0.2-0.1,0.3
		c0,0.1-0.1,0.1-0.1,0.2c0,0.1-0.1,0.2-0.1,0.2c0,0.1-0.1,0.2-0.1,0.2c0,0.1-0.1,0.2-0.1,0.3c-0.1,0-0.2,0-0.3,0
		c-0.1,0-0.2,0.1-0.3,0.1c-0.1,0-0.3,0.1-0.4,0.2c-0.1,0.1-0.2,0.2-0.3,0.3c-0.1,0.1-0.2,0.1-0.2,0.2c-0.1,0.1-0.2,0.1-0.2,0.2
		c-0.1,0.1-0.2,0.2-0.3,0.3c-0.1,0.1-0.2,0.2-0.3,0.3c-0.1,0.1-0.1,0.2-0.2,0.3c0,0.1-0.1,0.2-0.2,0.3c-0.1,0.1-0.1,0.1-0.1,0.2
		c0,0.1-0.1,0.1-0.1,0.1c-0.1,0-0.1-0.1-0.1-0.2c0-0.1,0-0.2,0.1-0.3c0-0.1,0.1-0.3,0.2-0.4c0.1-0.2,0.2-0.3,0.2-0.5
		c0.1-0.1,0.1-0.3,0.2-0.4c0.1-0.1,0.1-0.3,0.2-0.4c0-0.1,0.1-0.2,0.1-0.3c0-0.1,0.1-0.2,0.1-0.3c0-0.1,0.1-0.3,0.1-0.4
		c0-0.1,0.1-0.2,0.1-0.4c0-0.2,0.1-0.3,0.1-0.5c0-0.2,0-0.3,0-0.4c0-0.1-0.1-0.2-0.1-0.3c-0.1-0.1-0.1-0.2-0.2-0.2
		c-0.1,0-0.2-0.1-0.3-0.1c-0.1,0-0.2,0-0.3,0c-0.1,0-0.3,0-0.4,0.1c-0.1,0.1-0.3,0.2-0.4,0.3c-0.1,0.1-0.2,0.2-0.4,0.4
		c-0.1,0.2-0.3,0.3-0.4,0.5c-0.1,0.1-0.2,0.2-0.3,0.4c-0.1,0.1-0.2,0.2-0.3,0.4c-0.2,0.2-0.3,0.3-0.5,0.5c-0.2,0.2-0.3,0.4-0.5,0.6
		c-0.2,0.2-0.3,0.4-0.5,0.5c-0.2,0.2-0.3,0.3-0.4,0.5c-0.1,0.1-0.1,0.2-0.2,0.2c-0.1,0.1-0.1,0.1-0.2,0.2l0.4,1c0,0,0.1-0.1,0.2-0.1
		c0.1-0.1,0.1-0.1,0.2-0.2c0.1-0.1,0.2-0.2,0.3-0.3c0.1-0.1,0.2-0.2,0.3-0.3c0.1-0.1,0.2-0.2,0.2-0.3c0.1-0.1,0.1-0.2,0.2-0.2
		c0.1-0.1,0.2-0.2,0.3-0.3c0.1-0.1,0.2-0.2,0.3-0.3c0.1-0.1,0.2-0.2,0.3-0.2c0.1,0,0.2,0,0.2,0c0.1,0,0.1,0.1,0.1,0.2
		c0,0.1,0,0.2,0,0.4c0,0.1-0.1,0.2-0.1,0.4c0,0.1-0.1,0.3-0.1,0.5c0,0.1-0.1,0.3-0.2,0.4c-0.1,0.2-0.1,0.3-0.2,0.5
		c0,0.1-0.1,0.2-0.1,0.4c0,0.1-0.1,0.3-0.1,0.4c0,0.1-0.1,0.2-0.1,0.3c0,0.1-0.1,0.2-0.1,0.3c0,0.1,0,0.2,0,0.3c0,0.1,0,0.2,0.1,0.2
		c0,0,0.1,0.1,0.2,0.2c0.1,0.1,0.1,0.1,0.2,0.1c0.1,0,0.2,0.1,0.3,0.1c0.1,0,0.2,0,0.3,0c0.1,0,0.2-0.1,0.3-0.1
		c0.1,0,0.2-0.1,0.3-0.1c0.1-0.1,0.1-0.2,0.2-0.3c0.1-0.1,0.2-0.2,0.2-0.3c0.1-0.1,0.1-0.2,0.2-0.3c0.1-0.1,0.1-0.3,0.2-0.3
		c0.1-0.1,0.2-0.3,0.2-0.4c0.1-0.1,0.1-0.2,0.2-0.3c0.1-0.1,0.2-0.2,0.3-0.3c0.1-0.1,0.2-0.2,0.3-0.3c0.1-0.1,0.2-0.2,0.2-0.3
		c0.1-0.1,0.2-0.2,0.2-0.2c0.1-0.1,0.2-0.1,0.3-0.1c0.1,0,0.2,0,0.3-0.1c0,0.1,0,0.2-0.1,0.3c0,0.1,0,0.2,0,0.3c0,0.1,0,0.1,0,0.2
		c0,0.1,0,0.1,0,0.2c0,0.1,0,0.2,0,0.3c0,0.1,0,0.2,0,0.3c0,0.1,0,0.1,0,0.2c0,0.1,0,0.1,0,0.2c0,0.1,0.1,0.2,0.1,0.2
		c0,0.1,0.1,0.2,0.1,0.2c0,0.1,0.1,0.1,0.2,0.2c0.1,0.1,0.1,0.1,0.2,0.1c0.1,0,0.1,0.1,0.2,0.1c0.1,0,0.2,0,0.2,0c0.1,0,0.3,0,0.4,0
		c0.1,0,0.3-0.1,0.4-0.1c0.2-0.1,0.4-0.1,0.6-0.2c0.2-0.1,0.4-0.2,0.5-0.3c0.1,0,0.1-0.1,0.2-0.2c0.1-0.1,0.1-0.1,0.2-0.2
		c0.1-0.1,0.1-0.1,0.2-0.2c0.1,0,0.1-0.1,0.2-0.1c0.1-0.1,0.1-0.1,0.1-0.2C280.2,63.5,280.2,63.5,280.3,63.4L280.3,63.4z
		 M279.8,62.4C279.9,62.4,279.9,62.4,279.8,62.4c0.1-0.1,0.1-0.1,0.1-0.2c0.1-0.1,0.3-0.2,0.4-0.4c0.2-0.2,0.3-0.4,0.5-0.6
		c0.2-0.2,0.3-0.4,0.5-0.7c0.2-0.2,0.4-0.4,0.6-0.7c0.2-0.2,0.3-0.4,0.5-0.7c0.2-0.2,0.3-0.5,0.5-0.7c0.3-0.1,0.5-0.2,0.7-0.3
		c0.2-0.1,0.3-0.1,0.3-0.1c0.1,0,0.2,0,0.3,0.1c0.1,0.1,0.1,0.2,0.1,0.3c0,0,0,0.1,0,0.2c0,0.1,0,0.2-0.1,0.3
		c-0.1,0.1-0.1,0.3-0.2,0.5c-0.1,0.3-0.1,0.5-0.2,0.8c-0.1,0.3-0.2,0.5-0.2,0.8c-0.1,0.3-0.1,0.6-0.2,0.9c0,0.3-0.1,0.5-0.1,0.7
		c0,0.4,0,0.7,0.1,0.9c0,0.2,0.1,0.3,0.2,0.3c0.1,0,0.2-0.1,0.3-0.2c0.1-0.1,0.2-0.1,0.4-0.2c0.1-0.1,0.3-0.3,0.4-0.5
		c0.2-0.2,0.4-0.4,0.6-0.7c0.1-0.2,0.3-0.4,0.4-0.6c0.1-0.1,0.1-0.1,0.2-0.2c0.1-0.1,0.1-0.2,0.2-0.2c0.1-0.3,0.3-0.6,0.5-0.8
		c0.2-0.2,0.4-0.3,0.6-0.3c0.2,0,0.3,0,0.5,0.1c0.1,0.1,0.2,0.1,0.2,0.2c0,0.1,0,0.1,0.1,0.3c0,0.1,0,0.3,0,0.5c0,0.1,0,0.2,0.1,0.3
		c0,0.2,0,0.3,0,0.3c0,0.3,0.1,0.5,0.1,0.6c0.1,0.1,0.2,0.2,0.4,0.2c0.1,0,0.1,0,0.2,0c0.1,0,0.2,0,0.2-0.1l0.4,1
		c-0.4,0.3-0.8,0.5-1.1,0.6c-0.3,0.1-0.5,0.2-0.6,0.2c-0.4,0-0.7-0.1-0.9-0.3c-0.2-0.2-0.4-0.5-0.5-0.8c0-0.1,0-0.2-0.1-0.3
		c-0.1-0.1-0.1-0.2-0.2-0.3c-0.1,0.1-0.1,0.2-0.2,0.3c-0.1,0.1-0.2,0.2-0.3,0.3c-0.2,0.2-0.4,0.5-0.6,0.7c-0.2,0.2-0.4,0.5-0.6,0.7
		c-0.3,0.3-0.5,0.5-0.8,0.6c-0.3,0.1-0.5,0.2-0.7,0.2c-0.3,0-0.6-0.1-0.8-0.3c-0.2-0.2-0.3-0.5-0.4-0.9c-0.1-0.4-0.1-0.7-0.1-0.9
		c0-0.2,0-0.3,0-0.4c0-0.2,0-0.4-0.1-0.5c0-0.1-0.1-0.2-0.1-0.2l-0.1,0l-0.6,0.6c0,0.1-0.1,0.1-0.1,0.2c-0.1,0.1-0.1,0.2-0.2,0.3
		c0-0.1-0.1-0.2-0.2-0.4C280,62.9,280,62.7,279.8,62.4L279.8,62.4z M288.9,62.4c0.1,0.2,0.2,0.4,0.3,0.6c0.1,0.2,0.1,0.3,0.2,0.4
		c0.1-0.1,0.2-0.2,0.2-0.3c0.1-0.1,0.1-0.1,0.1-0.2l0.6-0.6l0.1,0c0.1,0,0.1,0.1,0.1,0.2c0,0.1,0,0.3,0.1,0.5c0,0,0,0.2,0,0.4
		c0,0.2,0.1,0.5,0.1,0.9c0.1,0.4,0.2,0.7,0.4,0.9c0.2,0.2,0.5,0.3,0.8,0.3c0.2,0,0.5-0.1,0.7-0.2c0.3-0.1,0.5-0.3,0.8-0.6
		c0.2-0.2,0.4-0.5,0.6-0.7c0.2-0.2,0.4-0.5,0.6-0.7c0.1-0.1,0.2-0.2,0.3-0.3c0.1-0.1,0.2-0.2,0.2-0.3c0.1,0.1,0.1,0.2,0.2,0.3
		c0,0.1,0.1,0.2,0.1,0.3c0.1,0.4,0.3,0.7,0.5,0.8c0.2,0.2,0.5,0.3,0.9,0.3c0.1,0,0.3-0.1,0.6-0.2c0.3-0.1,0.6-0.3,1.1-0.6l-0.4-1
		c-0.1,0-0.2,0.1-0.2,0.1c-0.1,0-0.1,0-0.2,0c-0.2,0-0.3-0.1-0.4-0.2c-0.1-0.1-0.1-0.3-0.1-0.6c0-0.1,0-0.2,0-0.3
		c0-0.2-0.1-0.3-0.1-0.3c0-0.2,0-0.4,0-0.5c0-0.1,0-0.2-0.1-0.3c0-0.1-0.1-0.2-0.2-0.2c-0.1,0-0.3-0.1-0.5-0.1
		c-0.2,0-0.4,0.1-0.6,0.3c-0.2,0.2-0.3,0.4-0.5,0.8c-0.1,0.1-0.1,0.2-0.2,0.2c-0.1,0.1-0.1,0.2-0.2,0.2c-0.1,0.2-0.3,0.4-0.4,0.6
		c-0.2,0.3-0.4,0.5-0.6,0.7c-0.2,0.2-0.3,0.4-0.4,0.5c-0.1,0.1-0.3,0.2-0.4,0.2c-0.1,0.1-0.2,0.1-0.3,0.2c-0.1,0-0.1-0.1-0.2-0.3
		c0-0.2-0.1-0.5-0.1-0.9c0-0.2,0-0.5,0.1-0.7c0-0.3,0.1-0.6,0.2-0.9c0.1-0.2,0.1-0.5,0.2-0.8c0.1-0.3,0.2-0.5,0.2-0.8
		c0.1-0.2,0.1-0.3,0.2-0.5c0-0.1,0.1-0.2,0.1-0.3c0-0.1,0-0.1,0-0.2c0-0.1,0-0.2-0.1-0.3c-0.1-0.1-0.1-0.1-0.3-0.1
		c-0.1,0-0.2,0-0.3,0.1c-0.2,0.1-0.4,0.2-0.7,0.3c-0.2,0.2-0.3,0.5-0.5,0.7c-0.2,0.2-0.3,0.5-0.5,0.7c-0.2,0.2-0.4,0.4-0.6,0.7
		c-0.2,0.2-0.3,0.4-0.5,0.7c-0.2,0.2-0.4,0.5-0.5,0.6c-0.2,0.2-0.3,0.3-0.4,0.4C289,62.3,289,62.3,288.9,62.4
		C289,62.4,289,62.4,288.9,62.4L288.9,62.4z M298.9,53.1c0,0,0.1,0.1,0.1,0.2c0,0.1,0,0.3-0.1,0.5c-0.1,0.5-0.2,0.9-0.4,1.2
		c-0.2,0.3-0.5,0.7-0.9,1.2c-0.5,0.6-1,1-1.4,1.3c-0.5,0.3-0.9,0.4-1.1,0.4c-0.2,0-0.3,0-0.5-0.1c-0.2-0.1-0.3-0.2-0.4-0.4
		c-0.1-0.2-0.1-0.4-0.1-0.7c0-0.3,0.2-0.6,0.4-1.1c0.2-0.3,0.4-0.5,0.7-0.5c0.3,0,0.5,0,0.5,0c0,0.3,0,0.6,0.1,0.7
		c0.1,0.1,0.2,0.2,0.3,0.2c0.2,0,0.5-0.2,1-0.7c0.5-0.4,0.9-1.1,1.3-1.9c0.1-0.1,0.1-0.2,0.2-0.2C298.8,53.1,298.8,53.1,298.9,53.1z
		"/>
</g>
</svg>
