<?xml version="1.0" encoding="utf-8"?>
<!-- Generator: Adobe Illustrator 23.0.0, SVG Export Plug-In . SVG Version: 6.00 Build 0)  -->
<svg version="1.1" id="Layer_1" xmlns="http://www.w3.org/2000/svg" xmlns:xlink="http://www.w3.org/1999/xlink" x="0px" y="0px"
	 width="20px" height="24px" viewBox="0 0 20 24" style="enable-background:new 0 0 20 24;" xml:space="preserve">
<style type="text/css">
	.st0{fill:#0062A0;stroke:#0062A0;stroke-width:0.5;stroke-miterlimit:10;}
</style>
<g>
	<path class="st0" d="M1.3,7c0-0.9,0.1-1.8,0.4-2.7c0.4-1.2,1.1-2.2,2.1-2.9C4.2,1.2,4.5,1,4.8,1c0.4,0,0.8,0.1,1.1,0.4
		c0.6,0.4,1,1,1.3,1.6c0.3,0.6,0.6,1.2,0.9,1.8c0.2,0.4,0.3,0.9,0.3,1.3c0,0.3-0.1,0.5-0.2,0.7c-0.4,0.5-0.7,1-1.1,1.6
		C7,8.6,6.8,8.8,6.6,9.1c-0.2,0.4-0.2,0.8-0.1,1.2C6.7,11,7,11.6,7.3,12.2c0.4,0.8,0.9,1.6,1.5,2.2c0.5,0.6,1,1.1,1.7,1.4
		c0.5,0.2,0.9,0.3,1.4,0.1c0.4-0.1,0.7-0.3,1.1-0.5c0.6-0.4,1.2-0.3,1.7-0.1c0.7,0.3,1.3,0.9,1.9,1.4c0.6,0.5,1.1,1.1,1.5,1.7
		c0.2,0.4,0.4,0.8,0.3,1.3c-0.1,0.3-0.2,0.6-0.4,0.8c-0.5,0.7-1.3,1.2-2.2,1.4c-0.9,0.2-1.8,0.2-2.7,0c-1.6-0.4-3-1.1-4.3-2
		c-1.1-0.8-2.1-1.8-3-2.9c-0.6-0.8-1.3-1.6-1.9-2.4c-0.6-0.8-1.1-1.7-1.5-2.6C2.3,11.3,2,10.6,1.8,9.9C1.5,9,1.3,8,1.3,7z M2,7
		c0,0.4,0.1,0.9,0.1,1.3c0.1,0.5,0.2,1,0.3,1.4c0.2,0.6,0.4,1.2,0.7,1.8c0.3,0.8,0.8,1.6,1.3,2.3c0.6,0.9,1.3,1.8,2,2.7
		c1,1.3,2.2,2.4,3.6,3.3c1,0.6,2.1,1.2,3.3,1.4c0.8,0.2,1.6,0.2,2.4,0c0.8-0.2,1.4-0.6,1.9-1.3c0.2-0.3,0.2-0.5,0.1-0.8
		c-0.2-0.5-0.5-0.9-0.9-1.3c-0.7-0.7-1.4-1.3-2.2-1.8c-0.4-0.2-0.8-0.3-1.1,0c-0.4,0.3-0.8,0.5-1.3,0.6c-0.5,0.1-1,0.1-1.4,0
		c-0.7-0.2-1.3-0.6-1.8-1.1c-0.8-0.7-1.4-1.5-1.9-2.4c-0.5-0.9-1-1.8-1.2-2.8C5.7,9.8,5.7,9.2,6,8.7c0.2-0.3,0.4-0.7,0.7-1
		C7,7.4,7.2,7,7.5,6.6c0.2-0.2,0.3-0.4,0.3-0.7c0-0.2-0.1-0.4-0.1-0.6C7.4,4.6,7.1,4,6.7,3.4C6.4,2.9,6,2.5,5.7,2.1
		C5.3,1.7,4.9,1.6,4.5,1.8C3.7,2.2,3.2,2.9,2.8,3.7C2.2,4.7,2,5.8,2,7z"/>
</g>
</svg>
