<?xml version="1.0" encoding="utf-8"?>
<!-- Generator: Adobe Illustrator 23.0.0, SVG Export Plug-In . SVG Version: 6.00 Build 0)  -->
<svg version="1.1" id="Layer_1" xmlns="http://www.w3.org/2000/svg" xmlns:xlink="http://www.w3.org/1999/xlink" x="0px" y="0px"
	 width="14px" height="19px" viewBox="0 0 14 19" style="enable-background:new 0 0 14 19;" xml:space="preserve">
<style type="text/css">
	.st0{fill:#00437C;}
</style>
<path class="st0" d="M13.3,15l0-0.2c-0.1-0.6-2.9-2-3.1-2l-0.2,0c-0.4,0-0.9,0.3-2,1c-1-0.7-2.1-2.2-2.7-3.1C4.7,9.7,4,8.2,3.9,7.1
	C5.1,6.3,5.6,6,5.7,5.6c0.1-0.2,0.1-3.3-0.4-3.7L5.2,1.7C4.9,1.4,4.5,1,3.9,1c-0.1,0-0.3,0-0.4,0.1C3,1.3,2,1.8,1.4,2.5
	C1.1,3,0.1,7.8,3,12.4c2.8,4.6,7.2,5.6,7.8,5.6l0,0l0.1,0c0.9-0.2,1.8-0.9,2.2-1.2C13.7,16.3,13.5,15.4,13.3,15z"/>
</svg>
